<svg xmlns="http://www.w3.org/2000/svg" viewBox="0 0 277 64.1">
  <path d="M277 27.4l-.5.4-.7.5-.7.4-.2.3-1.5 1.7-.2.2h-.2-.3l-1.6 1.4c-.6.5-1 1-1.7 1.3h-.3s-.2 0-.2.2l-.2.2h-.3l-.3.2v.2l-.2.2-.7.4-.6.5-.7.7c-.2.3-.4.5-.7.6h-.4c-.2 0-.3 0-.5.2v.2c-.2 0-.2.2-.3.2h-.4s-.3 0-.4.2l-.3.2-.2.2-1 .3-1 .3c-.5 0-1 0-1.3.2H257v-.2h-.2l-.6-.3c-.3 0-.5-.2-.8-.4-.3 0-.5-.2-.7-.4-1-1-1.7-2.3-1.7-3.8v-1.3c0-.4.2-.7.3-1 0-.3.2-.7.4-1l.7-1.3.2-.2.2-.2 1.8-2.5c.6-.7 1.4-1.4 2.3-2l.2-.4c0-.3.2-.4.3-.4l2-.8h2.6c.6 0 1 0 1.5.2.5 0 1 .3 1.2.5.3.2.5.5.5.8 0 .3 0 .6-.3 1l-1 .8-.7 1c-.3 0-.5.2-.6.3-.4 0-.8.4-1.2.7l-1.4 1h-.7l-.3.2c-.2 0-.3.2-.6.4l-.8.4-1 .2-1.2 2.7c-.4 1-.6 2-.6 3 0 0 0 .4.2.7 0 .3.3.5.5.8l.6.6c.3.3.6.3.8.3.8 0 1.7-.2 2.5-.5l2.3-1 2-1.6 2-1.4 1-.6 1-.7h.4l.3-.2V32h.5c.2 0 .3-.2.3-.4l.3-.4h.3l.2-.2.2-.4.3-.4.4-.2.4-.4c.2 0 .4 0 .6-.3l.3-.3.2-.3.6-.5.7-.5.7-.5.8.2zm-15.2.6v-.2l.2-.2h.3c.2 0 .4 0 .6-.3l.5-.5.6-.4c.3 0 .5-.2.6-.3.2 0 .3 0 .5-.3l.5-.6.3-.4V24c0-.2-.4-.3-.7-.5l-1-.2s-.4 0-.6.2l-.8.6-.8.8-.6.6-.7.8-.7 1-.6 1-.4 1c.3 0 .5-.2.8-.3l.7-.5.8-.2c.3 0 .5-.2.8-.3zm-1.5-1.8s0 .3-.2.4c0 .2-.2.3-.4.4-.2 0-.4.3-.5.4l-.3.2-1 .8c-.2.3-.6.6-1 .8l-1.5.6c-.5.2-1 .2-1.5.2s-1 0-1.2-.2l-1-.6-1-.7c-.2-.2-.5-.5-1-.7l-.3.5c0 .2 0 .4-.2.6v.5c0 .2-.2.4-.3.5l-.3.5-.3.4c-.3.3-.5.8-.7 1.3l-.7 1.5-1 1.3-1 1.6c-.2.2-.3.3-.3.5l-.3.7v.3c0 .2-.2.3-.5.3s-.5.2-.5.5v.2c-.2 0-.3.2-.5.3-.2 0-.3.2-.5.4v.3l-.2.2-.4.4-.5.5-.3.4-.5.7-.7 1-.7.7c-.2.3-.5.4-.7.5v.5h-.6v.6h-.2c-.2 0-.3 0-.3.3 0 .2 0 .3-.2.4l-.6.2-.7.2-.5.4s-.3.2-.7.2c-.5 0-1 0-1.6-.4l-1.5-.7-.7-2.2c-.2-.7-.2-1.4-.2-2.2 0-1 .2-2.3.5-3.4l1-3.6c.5-1.2 1-2.5 1.2-3.7.3-1.4.5-2.6.5-4l-.3-.2c-.2 0-.4 0-.6-.2h-2.2s-.2 0-.2-.2l-1-.2h-1.4c-.4 0-.8 0-1.2-.2-.4 0-.6 0-.8-.2l.3 1.2s-.2 0-.4.4l-.6 1-.5 1-.4.6v.2l-.6.6-1 1-1.3 1c-.4.4-.8.8-1.3 1-.4.4-.8.8-1.2 1l-.7.5-.3.3-.3.2h-.4c-.2.2-.4.5-1 .8l-1 .7h-.4l-.6.2h-.6l-.4.2h-.4c-.5 0-1 0-1.4-.2l-1.3-.7h-.4l-.4-.2c-.2 0-.3 0-.4-.2V36l-.3-.5-.2-1.2c0-1 .3-1.8.6-2.5s1-1.5 1.8-2.4l.8-1 1-1 .4-.2c.2 0 .4-.2.5-.3l.3-.4h.5c0-.2.2-.2.2-.3 0 0 0-.2.3-.2h.6l.6-.3c.2 0 .3-.2.4-.3l.4-.3c.5-.2 1-.4 1.8-.5h4.3c.6 0 1 .2 1.6.3l1.6.3h.4c.3 0 .6 0 .8.2.2.2.4.2.5.2h1c.2 0 .4.2.5.3h.4l.5-.2.4.2h4.9c.3 0 .5 0 .7.3.3.3.4.6.5 1l.3 1.2c-.2 0-.2.2-.2.2v.5c.2 0 .2.2.2.4 0 .5 0 1-.2 1.5-.2.4-.2 1-.2 1.4V33.7l-.2.5c0 .3 0 .5-.2.8V36c-.2 0-.3.2-.4.4v1l-.2.8-.3.5c0 .3 0 .7-.3 1.2l-.4 1.6c0 .6-.3 1.2-.4 1.8l-.4 1.7v1.3h.4c0-.2 0-.2.2-.3h.3v-.2l.4-.2.5-.4.7-.4c.2 0 .3-.2.4-.3V44c1-.8 2-1.8 2.7-3l2.5-3 .5-.3c.3-.2.4-.3.4-.5V37v-.4l.6-.6.5-.7.3-.5v-.3l.5-.6 1-1.3.7-1.2V31c0-.2.2-.2.2-.3l.4-.5c0-.2 0-.5.2-.8 0-.4 0-.6.2-.7 0 0 0-.2.2-.2l.2-.2s0-.2.2-.3v-1.7c0-.4 0-.7.2-1 0-.5.2-.8.4-1h.8c.3 0 .5.2.7.4l.2.5c0 .2 0 .4.2.7 0 0 0 .4.2.6 0 .2 0 .4.2.6 0 .3.3.6.4 1l.5.7h2.2l1.6-.7.3-.2.5-.4.7-.5.5-.2c.2-.2.5-.3.7-.3.3 0 .5-.2.7-.4l1.3.2zm-35.7 1c.2 0 .2-.2.2-.4l-1-.6-.8-.6-1-.5h-1.2l-.7.4-.6.2s-.2 0-.2.2c0 0 0 .2-.2.2h-.4c-.2 0-.3 0-.5.2l-.3.5-.4.6-1.4 1.3c-.5.4-1 1-1 1.5l-.8.8-1 1.6-.6 2-.3 1.7c.2.3.5.4 1 .4l1-.2c.3-.2.7-.3 1-.6l1.3-.7 1-.6c.4-.3 1-.6 1.3-1 .3-.4.8-.7 1.4-1V32c.2 0 .4-.3.6-.5l.8-.6.7-.8.4-.6c0-.2.2-.5.5-.8l.7-.7v-.3c.3-.2.3-.3.4-.5zM196.3 26v-.4s0-.2.2-.3l.5-1.5V23.2l.4-.8c0-.2.3-.4.5-.6v-.3-.4h.3s0-.2.2-.3l.2-.6s0-.4.2-.6v-.2c.2 0 .2 0 .3-.2v-.3l.2-.3h.2l.2-.2.4-.8c0-.3.4-.7.6-1l.6-1c.2-.5.4-.8.7-1 .4-.7 1-1.2 1.4-1.7l1.4-1.5c.3-.2.4-.4.5-.6 0-.2.2-.3.5-.5h.4l.3-.2s.2 0 .2-.2v-.4h.3l.5-.2 1-.5L210 8c.6-.2 1-.2 1.5-.2.6 0 1.3 0 2 .3v.4l.4.3.2.6.2 1.2v.3l-.5.6-.6.7-.6.8-.8 1-.7 1-.7.8-.8 1-.7.7c0 .2-.2.3 0 .3-.3 0-.4 0-.5.2l-.2.4-.2.4s0 .2-.3.2c-.5 0-.8.2-1 .6l-.4.3-1 1-1.4 1.4c-.5.5-1 1-1.2 1 0 .2-.3.2-.5.3-.3 0-.4.2-.4.3v.3H201.3l-.2.2s0 .3-.2.5c0 0 0 .2-.2.2h-.2l-.2.7c0 .2 0 .4-.2.6l-.3.2c-.2 0-.3.2-.3.3v.9c-.2.2-.2.5-.4 1l-.3.2s-.2 0-.2.2v.6l-.6 2.8c-.2 1-.2 1.8-.2 3 0 .4.2.8.6 1 .4.3.8.4 1.3.4.2 0 .5 0 .7-.4.2-.3.5-.4.8-.5h.6c.5-.3 1-.4 1.2-.7l.4-.3c.2 0 .4-.3.5-.4l.6-.4c.2 0 .3-.2.3-.2l.3-.2.6-.5c0-.2.3-.4.5-.5.2-.2.4-.2.5-.2l.3-.2.7-.4.8-.5.4-.4.3-.2c.2 0 .4-.2.6-.4.3 0 .5-.2.8-.4.2 0 .4-.2.5-.3l.2-.3s0-.2.2-.3h.6l.4-.6c0-.2.3-.3.4-.4l1.2-.8 1-1h1s0 .2-.2.3l-.5.4c-.2 0-.3.2-.5.3-.2 0-.2.2-.3.2 0 .2-.2.3-.3.4l-.4.2-.4.2c-.2 0-.3 0-.3.2l-.3.5c0 .3-.2.4-.4.5l-.7.2v.2h-.4-.3v.3l-.2.2-1.4 1.2-1.4 1-1.4 1h-.3s-.2 0-.3.2c0 0-.2 0-.2.2v.3s-.2 0-.3.2h-.4v.2h-.3s-.3 0-.5.3v.2l-.2.2h-.3s-.2 0-.3.2c-.2 0-.4.2-.5.4 0 .2-.3.3-.6.3h-.2c0 .2-.3.4-.7.7-.4.3-.7.4-1 .4h-1c-.2.2-.5.2-.8.2h-.8l-.7-.3h-.2l-.3-.3-.6-.6-.6-.7c-.2 0-.3-.3-.3-.4l-.2-1v-4.4-.5l.2-.7v-.7c0-.2.2-.3.2-.3l.3-.6.4-1.3c-.3 0-.2 0 0 0zm6.7-6l-.5 1c0 .5-.3 1-.5 1.2.2 0 .4 0 .6-.3 0-.3.3-.5.4-.6l.4-.2c.2 0 .3 0 .3-.2 0 0 0-.2.2-.3 0-.2.2-.3.4-.5l.5-.5.2-.2s.2 0 .5-.3l.4-.4c0-.2 0-.2.2-.2h.2L208 17h.3l.3-.3c0-.3.3-.6.5-1 .4-.2.7-.5 1-1l1-1 1-1 .4-.7.6-.6.5-.7.2-1c0-.3 0-.6-.3-1l-.8-.6c0 .3-.2.4-.4.4h-.6c-.2 0-.3 0-.3.2s0 .2-.3.2c-.2 0-.4 0-.5.3 0 .3-.2.5-.4.6l-.4.2c-.2 0-.4.2-.4.3v.3l-.2.2-.5.5-.5.6c-.2.2-.2.4-.2.5v.3c-.2 0-.2 0-.2.2v.3l-.3.2c-.2 0-.3 0-.3.2l-.4 1c0 .3 0 .6-.2.8h-.2l-.2.4v.2l-.4.5-.7 1.4-1 1.4c-.7.7-1 1-1 1.2zm-28.8 7.4l-.5.4-.7.5-.7.4c-.2 0-.3.2-.3.3l-1.5 1.7-.2.2h-.3-.3l-1.6 1.4c-.4.5-1 1-1.5 1.3h-.3s-.2 0-.2.2l-.2.2h-.3l-.3.2v.2l-.2.2-.7.4c-.2 0-.5.3-.7.5l-.7.7c-.3.3-.5.5-.8.6h-.4c-.2 0-.3 0-.5.2 0 0-.2 0-.2.2v.2h-.5s-.3 0-.4.2v.2l-.3.2-1 .3-1 .3c-.5 0-1 0-1.3.2h-2.2v-.2h-.2l-.6-.3c-.3 0-.5-.2-.8-.4-.3 0-.5-.2-.7-.4-1.2-1-1.8-2.3-1.8-3.8v-1.3c0-.4.2-.7.3-1 0-.3.2-.7.4-1 0-.4.3-.8.6-1.3l.2-.2.2-.2 1.8-2.5c.6-.7 1.4-1.4 2.3-2 .2 0 .3-.2.4-.4 0-.3.2-.4.3-.4l2-.8h2.6c.5 0 1 0 1.4.2.5 0 1 .3 1.2.5.2.2.4.5.4.8 0 .3 0 .6-.3 1 0 .2-.4.5-.7.8l-.8 1c-.3 0-.5.2-.6.3-.5 0-1 .4-1.3.7l-1.4 1h-.8l-.3.2c-.2 0-.3.2-.6.4l-.8.4-1 .2-1.2 2.7c-.4 1-.6 2-.6 3 0 0 0 .4.2.7 0 .3.3.5.5.8l.6.6c.2.3.5.3.7.3.8 0 1.7-.2 2.5-.5l2.3-1 2-1.6 2-1.4 1-.6 1-.7h.4l.3-.2V32h.5c.2 0 .3-.2.3-.4s0-.3.2-.4h.3l.2-.2.2-.4.3-.4.4-.2c0-.2.2-.4.3-.4 0 0 .3 0 .5-.3l.3-.3.4-.3.6-.5.7-.5.7-.5.8.2zM159 28v-.2l.2-.2h.3c.2 0 .4 0 .6-.3l.7-.5.6-.4c.2 0 .4-.2.5-.3.2 0 .3 0 .5-.3 0-.2.3-.4.4-.6l.3-.4V24c0-.2-.4-.3-.7-.5l-1-.2c-.2 0-.5 0-.7.2l-.8.6-.8.8-.6.6-.7.8-.7 1-.6 1-.4 1c.3 0 .5-.2.8-.3l.7-.5.8-.2.7-.3zm-14.2 8l.4-.3.2-.2v-.2h.3s.2 0 .2-.2V35l.3-.3.3-.2s.3 0 .5-.3l.8-.6.7-.7.5-.6.5-.2c.3 0 .4-.2.6-.3v-.2s0-.2.2-.2h.5c.2 0 .4-.2.4-.4h.3l.5-.5c.2 0 .4-.2.6-.4l.5-.5s.2 0 .4-.3l.8-.6c.3 0 .6-.3 1-.4l.4-.2c0 .4 0 .7-.5 1-.3 0-.6.3-1 .5l-.6.5-1 .8c-.2 0-.3.2-.5.3-.3 0-.5.2-.6.3h-.2c0 .2 0 .2-.2.3l-.3.3-.7.4v.2s0 .2-.2.2l-.6.4c-.2 0-.3.2-.5.3l-.3.4-.3.4-1 .8v.2l-.3.2c-.3 0-.6.3-1 .7L144 37l-1.3 1.7-1 1.4c0 .3-.2.3-.4.3h-.5v.4s0 .2-.3.2h-.3s0 .2-.2.3l-.3.4-.6.3s-.2 0-.4.3l-.7.7-1 .7c-.4.2-.8.3-1.3.3h-.3c0-.2 0-.2-.2-.2l-.2.2c-.3 0-.8 0-1.3-.2l-1.5-.6-1.3-.8c-.4-.3-.5-.6-.5-1l-.2-.4c0-.2 0-.4-.2-.6v-.7l-.2-.6.4-2.5.7-3 1-2.2c.3-.6.5-1 .7-1v-.4l.3-.3c0-.2.2-.4.4-.6l.4-.6.3-.6c.4-.5.6-1 1-1.3.2-.4.5-1 .8-1.2h-.3c-.3 0-.6 0-.8.2-.2.2-.5.2-.8.2-.2 0-.3 0-.6.4s-.5.5-.7.6c-.2 0-.4 0-.6.3l-.5.4-.5.5h-.7l-.6.6-.6.6-.3.2s-.3 0-.4.2l-.7.6c-.2.2-.4.5-.7.6-.3 0-.4.2-.5.2 0 0-.3 0-.4.2 0 .2-.4.4-.6.7l-.7.6-.4.2s-.3 0-.4.2c-.7.4-1.2 1-1.6 1.5-.4.6-1 1-1.6 1.4 0 0-.3.3-.6.3s-.5.2-.6.4c-.2 0-.3 0-.4.2l-.3.2c-.2 0-.3.2-.5.3h-.5c-.2 0-.4 0-.4-.2s-.2-.3-.4-.3h-.4l-.2-.2v-.2c-.5 0-1-.2-1-.6-.3-.4-.5-.7-.5-1 0-.5.2-.8.3-1.2 0-.3.3-.7.4-1l.4-1c.2-.3.3-.7.3-1l.3-.3.3-.4v-.3l.2-.3V29c0-.2 0-.2.2-.2s.2 0 .2-.3V28l.4-.5v-.2c0-.2 0-.3.2-.3l.3-.3 1.8-3 2-2.6c-.4.3-.8.5-1 1l-1.3.8-.6.4-.3.7c-.3 0-.6.2-1 .5l-1 .8c0 .2-.2.2-.4.3-.2 0-.4 0-.5.3h.2c-.6.6-1.2 1-2 1.4l-1.8 1.3V28l.3-.3c.6-.3 1.2-.7 1.8-1.3L116 25c.2 0 .2 0 .2-.2l2.5-2 2.3-2c.5-.5 1-1 1.5-1.2.5-.4.8-1 1-1.6l.4-.3.4-.4.5-.5v-.3l.3-.3.3-.4.3-.4s0-.2.2-.2V15c0-.2.2-.4.5-.6l.7-.6c.3-.4.6-1 1-1.3.2-.4.5-1 1-1.3 0-.2.2-.4.6-.6l.5-.6v-.3l.4-.5c0-.2.3-.4.5-.7l.6-.6.5-.4h.3l.3-.5c.2-.2.3-.3.5-.3h.4l1-.5h2.3c.3 0 .5.3.5.6s0 .6-.2.8c-.2.2-.2.6-.2 1h-.2v.8c0 .3 0 .4-.2.6 0 .3-.3.5-.5.7l-.6.6c-.2 0-.2.2-.2.3v.3c-.3 0-.5.2-.7.3-.2 0-.4.2-.6.4v.2h-.2c-.2.2-.3.3-.5.3s-.4 0-.5.2l-.7.4-.7.4-.5.5h-.9l-.5 1c-.3.3-.5.6-.6 1l-.2.2-.4.5c0 .2-.3.3-.4.5l-.2.3-.2.7c0 .3 0 .5-.2.6h-.2v.2l-.3.4-.4.8c-.3.3-.4.6-.6 1l-.4.7-.2.2-.3.6c0 .3-.3.6-.5 1l-.5 1-.4.7c0 .3 0 .4-.2.5l-.5 1.2-.5 1.3-.5 1.2-.4.8c-.4.4-.6.7-.6 1l-.3.8c0 .2-.2.4-.3.4 0 0-.2.3-.2.7.4 0 .8 0 1.2-.3.4 0 .7-.4 1-.6l1-1 1-.8h.3s.2 0 .3-.2l.7-.7.7-.7h.4l.4-.2.8-.8c.2-.3.5-.5 1-.8.2 0 .4-.2.5-.3l.5-.4c.2 0 .3-.3.4-.4 0-.2.3-.3.4-.5l.7-.5.8-.4c.3 0 .5-.3.8-.4l.5-.2s.2 0 .2-.2l.2-.2 1.7-.7 1.6-.2c.5 0 1 0 1.7.4 0 .8 0 1.6-.3 2.4l-.8 2.2c0 .2-.2.4-.4.6-.2.2-.2.4-.2.7l-.2.6-.5.6v.4h-.3v.5c0 .2-.2.2-.3.2 0 0 0 .2-.4.5-.3.3-.4.6-.4 1v.7l-.4 1-.4.8-.2.7-.4 2v3s0 .2.2.3l.3.3.3.5h1c.3.2.5.2.7.2l.2-.2c.2 0 .5-.3.8-.5l1-.6.5-.6.2-.3.2-.2 1-1c.4 0 .7-.5 1-1l.7-.5.6-.5v-.2s0-.2.2-.2h.4V37c0-.2.2-.3.3-.4l.2-.2h.3l.2-.3c0 .2 0 0 0 0zm-12.3-23.7v.3l-.2.3h-.2l-.2.4v.3l-.4.3-.2.4s0 .2.2.3c0-.2.2-.4.4-.3h.5V14h.2c0-.2.2-.2.4-.2h.4l.2-.6h.3l.3-.3.6-.7c0-.2.3-.4.4-.6l.2-.4V11h.2l.5-1.4c0-.6.3-1 .4-1.5v-.2h-.4c0 .2-.3.3-.5.4-.2 0-.3.2-.5.3-.2 0-.3.2-.3.3V9c0 .2 0 .3-.2.4l-.6.6-.7.7-.7.7c0 .4-.2.6-.3 1zM94 17c0-.4.2-.8.4-1.2l.6-.8.6-.6c.2-.2.3-.4.3-.7v-.2h.2c0-.2 0-.3.2-.4l.2-.2s0-.2.2-.2c0 0 .2 0 .2-.2l.2-.3.2-.3.4-.3.3-.3c.2 0 .2 0 .3-.2l.3-.4.6-.5.2-.4s0-.2.2-.3c.2-.2.5-.4 1-.5l1-.2c.4 0 .8.2 1.2.5 0 .5 0 1-.2 1.2l-.5 1c0 .3-.3.6-.4 1-.2.2-.2.5-.2.7l-.2.4c0 .2-.3.5-.5.8l-.6 1-.4.8.2.2c-.2.4-.4.8-.7 1l-.5 1-.3.2-.8 1.5-.5 1-.8 1-.3.6-.7 1c-.7 1-1.2 2-1.7 3l-1.3 2.8-1.5 3-1.3 2.8c0 .2 0 .4-.2.7l-.2.6-.4 1.5v.4l-.2.3V40.4l-.2 1v.2H88v1.6c0 .3.2.6.4.8 0 .2.3.3.6.3.6 0 1.3 0 2-.3l2.3-1 2-1.5 2-1.3h.2c.2 0 .4-.2.6-.4l.6-.6.6-.6c.2-.2.5-.3 1-.3l.4-.2.5-.4h.5l.4-.2V37c0-.2.2-.3.3-.4l.5-.3.6-.3c1-.5 1.7-1.2 2.5-2 .7-.6 1.6-1.3 2.6-1.8h.2s.2 0 .2-.2c.3-.2.6-.5.8-1 .3-.3.6-.5 1-.5l.2-.2.4-.3c.2 0 .3-.2.4-.3l.2-.2V29l.3.2.3-.3c0-.2.2-.2.3-.3l.6-.7.5-.5c.3-.2.5-.2.8-.2h.5l-.5.7-.5.6-.6.5c-.4.3-.7.5-1 1-.2.2-.5.6-1 .8l-.8.6c-.4 0-.7.3-1 .6l-.4.4-.4.4c-1 .6-1.7 1-2.4 1.6l-1.7 1.2-1 .7.2.4h-.5s-.2 0-.3.2l-.3.2-.2.3s0 .2-.2.2h-.2l-.2.2-.6.2-.7.4c-.3 0-.5.2-.6.3l-.4-.2s-.2 0-.2.2c0 0 0 .2-.2.3l-1.3.8-1.5 1-1.2 1c-.3 0-.5.3-.5.4 0 .2 0 .2-.2.2-.4 0-.7 0-1 .4l-1 .7-1 .5-1 .5c-.3 0-.6 0-1 .2h-.6c-.6 0-1 0-1.5-.2l-1-.8-.6-1c0-.5-.3-1-.6-1.3v-1c0-.3 0-.3-.2-.4-.2 0-.2-.2-.2-.4v-1l.2-.4v-.4c.2 0 .2-.3.2-.4v-.6-1l.3-1.2c0-.4.2-.8.4-1.2l.5-1c1-2 1.8-4 2.5-6 .8-2.2 1.7-4.2 3-6.2l.2-.2.3-.5v-.5s0-.3.4-.6l.4-.8c0-.3 0-.5.2-.6 0-.2 0-.4.3-.5zm34.3-2.3c.4 0 .7-.4.8-.7l.4-1c0-.5.2-.8.4-1 .2-.4.5-.5 1-.5.2 0 .3 0 .5.2l.2.5c0 .2-.2.3-.5.3-.2 1-.6 1.7-1 2-.6.6-1.3 1-2 1.4-.5-.2-1-.3-1-.7l-1-.7-1.3-.5c-.4 0-.8-.3-1.2-.6v-.2l-1.5-.6-1.4-.8c-.4-.3-1-.5-1.2-.8l-.7-.6-.6-.4-.8-.5-.8-.5-.3-.4-1.3-.8c0-.2-.3-.4-.5-.6l-1-.5-.8-.5c-.3 0-.5-.3-.7-.4-.5-.4-1-.8-1.7-1l-2.4-1.3-2-1-2-.7-2-.6c-.6-.2-1.3-.2-2-.2h-2.7c-.4 0-.7 0-.8-.2V1h-.4-.3v.3c-.2 0-.4 0-.6-.2-.3.2-.6.3-1 .3h-1L92 2c-.2.2-.5.3-.8.3h-.8l-1 .3c-.3.2-.6.3-.7.5V3c0 .2 0 .3-.2.4l-.4.2H88l-.4.3-.4.4c-.4.8-.6 1.6-.6 2.4V8l.3.6.4.2c.2 0 .4 0 .5.3l.3.7c0 .2.2.4.4.6.5.4 1 .7 1.8 1l2 .6s-.4.2-.6.5c-.2.2-.4.3-.7.3l-.2-.2-.2-.2H90s0 .2-.2.2h-.2V12c-.5-.2-1-.4-1.4-.8l-1.3-1c-.5-.5-.8-1-1-1.5-.4-.6-.5-1-.5-1.6V7c.2 0 .2 0 .2-.2l-.4-.2c0-.3 0-.7.3-1l.6-1.3c.2-.5.5-1 1-1.4h.3l.2-.4c0-.2 0-.3.4-.5.4 0 .7-.2 1-.3.5 0 .8-.2 1.2-.3l.7-.2V1h.3c.2 0 .3 0 .4-.2l.4-.2h.3c.7 0 1.4 0 2.2-.3.7-.2 1.5-.3 2.3-.3 2 0 4 .3 5.8.8 1.8.5 3.6 1.2 5.4 2.2h.6c0 .3.2.5.5.6l1 .5 1 .5c.4 0 .6.2.7.3V5l.3.2h.4c.2 0 .3.2.5.3l.2.3.6.4 1 .7 2 1 2.5 2 2.8 1.8 3 1.6c1.2.7 2.2 1 3.3 1.3zm-76 10c-.2 0-.6 0-1-.2l-1-.5-1-.6-.7-.5-.4.2-.4.2h-.4s-.2 0-.3.2v.3h-.7l-.2.2s-.2 0-.2.2h-.3c-.2.2-.4.3-.7.3h-.4l-.8.5-1.3.4-1.5.3h-1.3l.3 1.3s-.3 0-.5.4l-.6 1-.5 1-.4.6s-.2 0-.2.2-.4.5-1 1c-.4.5-1 1-1.8 1.6l-2 1.7-1.3 1-.3.3-.3.2h-.5c-.2.2-.4.5-1 .8l-1 .7H28l-.5.2h-1.1c0 .2-.2.2-.4.2-.4 0-.8 0-1.3-.3l-1.3-.8H23l-.4-.2s-.2 0-.3-.2v-.5c-.2 0-.2-.2-.3-.4l-.2-1.3c0-1 .2-1.8.5-2.5s1-1.5 1.8-2.4l1-1 .8-1 .5-.2c.2 0 .4-.2.5-.3V27l.2-.2h.4s.2 0 .2-.2c0 0 0-.2.3-.2l.5-.2c.2 0 .4 0 .6-.2.3 0 .4-.2.5-.3l.4-.3c.4-.3 1-.5 1.7-.6h5.5c.2 0 .4 0 .6.2.2 0 .3 0 .4.2 1 0 1.7 0 2.4-.3L43 24h.4c.2 0 .4 0 .6-.2l.8-.2.6-.2.3-.2h.2c0-.2.4-.3.7-.5.3-.3.7-.4 1.2-.4-.3-.3-.4-.8-.4-1.3v-2.1-.8l.3-.6c0-.2 0-.2.2-.2V17c.4-.2.6-.5.8-1l.5-.7h.3l.3-.2c.3 0 .5 0 .8-.4.3-.3.7-.4 1.2-.4h.4l.7.3c.4 0 .6.2 1 .3.2 0 .4.2.5.4v1c0 .2 0 .5-.2.7l-.5.4c-.2 0-.3.3-.5.4l-.2.5v.5l-.6.5-.5.5-.3.3v.6l-.8.7c-.2.2-.3.5-.3 1 0 .6 0 1 .3 1l.3.6v-.4h.8c.7 0 1.3 0 2 .2l1.7.5v.8c0 .3-.3.5-.6.6V26.2l-.6.7-.6.7c-.2.3-.4.5-.7.6 0 .6-.4 1.2-.6 2l-.8 1.8c0 .2 0 .2-.2.2v.4l-.3.8-.3 1c-.2.2-.3.5-.4 1l-.2 1s0 .3.2.5c0 0 .2.2.5.2.6 0 1.3 0 2-.4.7-.3 1.3-.6 1.8-1l1.2-.5c.4 0 .8-.2 1.2-.4h.4v-.4l.3-.2h.2V34h.2l.3-.2.6-.5.8-.5c.2-.2.5-.2.7-.2l.2-.4c0-.2.2-.3.3-.3 0 .2 0 .2.2.2s.2 0 .2-.2c0 0 0-.3.2-.3h.3s0-.2.2-.3l.6-.5.6-.6.4-.2c.2 0 .3 0 .5-.3l.6-.7.5-.6c.2-.2.3-.3.5-.3h.3V28h.2s0-.2.2-.2h.2v-.5c.2 0 .3 0 .5-.3v1l-.5.3s-.2 0-.2.2v.5l-.6.3c-.2 0-.4.2-.5.3l-.4.5c0 .3-.3.4-.4.6l-1.2.7-1 .6c-.3 0-.4.2-.5.3 0 .2-.3.3-.4.5l-.6.3-.5.4c-.3 0-.4.3-.5.4 0 .2-.3.3-.5.4l-.6.4c-.2 0-.4.2-.5.3h-.4-.3l-.6.6c-.2.3-.4.4-.7.4h-.4s-.3 0-.5.3l-.6.4-2.4 1c-.8.3-1.7.5-2.5.5-.7 0-1.4 0-2-.3-.6-.3-1-.6-1-1 0 0 0-.5-.4-.8-.2-.4-.4-1-.4-1.5v-.5-.6l.2-.6c0-.2 0-.3.2-.4l.5-1c0-.6.2-1 .4-1.3 0-.3.2-.5.4-.8l.6-.7 1-1.3 1.3-1.3c.4-.6.8-1 1-1.5zm-14 2.5c.2 0 .2-.2.2-.4l-1-.6-.8-.6-1-.5h-1.2l-.7.4c-.2 0-.4 0-.7.2v.2l-.3.2h-.4c-.2 0-.3 0-.5.2 0 0-.3.2-.4.5l-.4.6-1.4 1.3c-.4.4-.8 1-1 1.5l-.7.8c-.4.4-.7 1-1 1.6l-.7 2L26 36c.2.3.5.4 1 .4l1-.2c.3-.2.7-.3 1-.6l1.3-.7 1-.6c.4-.3 1-.6 1.3-1 .4-.4 1-.7 1.5-1V32c.3 0 .5-.3.7-.5l.8-.6.7-.8.4-.6c0-.2.3-.5.6-.8l.7-.7v-.3l.3-.5zm14-10.6c-.2 0-.3.2-.3.2l-.3 1V19l1.5-1.8c.4-.5.7-1.2.8-2l-.3-.2h-.3c-.3 0-.6.2-.7.5l-.3.8v.3zm-41 19c-.2 0-.3.2-.3.4v.3l.2.3.2 1.5c0 .6 0 1 .2 1.6V42c-.2.3-.3.7-.3 1v2.7c0 .4 0 .7-.2 1v2l-.2.8c0 .3 0 .6-.2 1 0 .2 0 .4-.2.6v.5l-.3.5v.7l-.2.7v1s-.2 0-.2.2l-.2 1c0 .3 0 .8-.2 1.3L9 58l-.4.6-.4.6-.2.5v.3c0 .2-.2.4-.5.5-.2 0-.4.3-.4.5v.3c-.2 0-.3.2-.3.2v.3l-.2.4-.7.5c-.3 0-.5 0-.7.3l-.4.5-.6.3h-.3c-.2 0-.3-.3-.5-.2h-.5v-.3l-.3-.2c-.2 0-.5 0-.7-.3l-.5-.7-.4-1-.3-.6v-.5l-.3-.5c0-.3 0-.7-.2-1v-1c0-1.3 0-2.4.3-3.6l.6-3.3c0-1.2.4-2.4.6-3.6.2-1 .5-2.3 1-3.5l.6-1.7c.2-.2.3-.4.3-.7 0-.2 0-.4.2-.6 0-.2.2-.3.3-.4.2 0 .2-.2.2-.4 0 0 0-.3.2-.5l.3-.6.2-.7V37h.2v-.5c.3-.2.6-.6.7-1 0-.4 0-.8.3-1.2l1-2C8 30.8 9 29 10 27.6c1-1.6 2-3.2 2.7-5l-1 .8-1 .8c0 .3 0 .4-.2.4l-.2.2-.2.2-.3.2c-.2 0-.5.2-.8.6l-.8.8c-.2 0-.3 0-.5.3l-.7.5-.6.5c-.2.2-.4.2-.5.2h-.3c0 .3-.3.4-.7.6-.4 0-.6.3-.7.4l-.3.4-.2-.6 1.2-1 1.4-1c.5-.3 1-.7 1.2-1l.8-.8.4-.3c.2 0 .4-.3.6-.4l.6-.4.2-.4.8-.5c.2 0 .4-.2.5-.4l.2-.4h.4c0-.2.2-.2.4-.3l.4-.3 2-2.5.4-.5.3-.4.2-.4v-.3l.3-.3.3-.4.2-.2.4-.5c0-.2.3-.3.4-.5l.2-.2v-.3l.8-.6.7-.6V14s0-.2.2-.3c.5-.7 1.2-1.4 2-2.2.8-.8 1.6-1.5 2.4-2 0-.2 0-.2.3-.2h.4l.4-.3.6-.5.5-.5c.3 0 .4-.2.5-.2h.3c0-.2.2-.3.3-.5l.6-.2c.2 0 .3 0 .4-.2l.3-.2.4-.2h.8c1 0 1.8 0 2.7.4l.2.4s0 .2.3.3c0 .3 0 .6-.3.8l-.6.8-.3.3-.5.6-.5.6-.3.6c0 .2-.2.3-.3.4-.3 0-.4.2-.5.3l-.4.6c0 .3 0 .6-.3.8-.3.3-.6.5-1 .6l-1 .6-1 1-1.3.8-1.5.7c-.6.2-1 .5-1 .8h-.6c-.2 0-.4.2-.5.4-.4.3-.7.7-1 1.2 0 .4-.4 1-.6 1.2l-1 1.4L18 23c0 .3-.3.6-.5 1l-.4.4v.4h-.3l-.2.6c0 .2 0 .4-.2.5l-.7.6c-.3.2-.4.5-.4 1l-.2.6-.4.7-.6.6s-.2 0-.2.2l-.2.5c0 .2-.2.4-.3.5 0 .2-.2.3-.4.4v.5l-.7.8-.4.7-.3.7.4.3 1 .5c.2.2.5.3 1 .4l.6.2h1.6l1-.3c.2 0 .3 0 .4-.2l.7-.2c.2 0 .5 0 .7-.2l.6-.5.6-.5 1.7-1c.4-.5 1-1 1.5-1.3.2 0 .4-.3.7-.5l.8-.6c.3 0 .6-.3 1-.5l.6-.5.7-.7.7-.6s.3 0 .5-.3l.6-.5.7-.6.5-.2h.2l-.3.6c0 .2 0 .4-.3.5l-.8.5-1 .7-.6.5c-.2 0-.3.3-.5.4-.3 0-.5.3-.7.5H26v.3l-1.2.7-1 .7c-.3 0-.4.3-.7.6 0 .3-.4.5-.7.5-.2 0-.3 0-.4.2l-.3.3-.5.3-.7.4c-.3 0-.5.2-.7.4-.2 0-.4.2-.5.3l-2 1-2 .2c-.6 0-1-.2-1.7-.3-.6 0-1-.2-1.7-.3l-.8.2zm-.5 7.3v-1.3c.2-.4.2-.8.2-1V38c0-.4 0-.8-.2-1.2 0-.4-.2-.7-.4-1l-.8 1.5-1.2 2.4-1 2.4-.4 1.6c0 .4 0 1-.4 1.3L6 46c-.2.5-.4 1-.5 2 0 .7-.2 1.3-.4 2l-.2.6c0 .4-.3 1-.4 1.4 0 .5-.3 1-.4 1.5l-.3 1v.3L3 57C3 58 3 58.5 3 59c0 .7 0 1.4.2 2 0 .6.3 1.3.5 2 .6 0 1-.3 1.6-.8.5-.5 1-1 1.3-1.7l1-2 .8-1.7v-.2l.2-.6v-.8c0-.3.2-.6.3-.8 0-.3 0-.5.2-.6v-.4c0-.7.2-1.3.4-2l.5-1.8.4-2c0-.6 0-1.3.2-2 0-.7 0-1.2.2-1.7 0-.6 0-.8.2-.8 0 0 0-.2-.2-.3zM24 12c0 .3-.3.6-.6.8-.3.2-.5.4-.5.8 0 .2-.3.4-.7.7l-.7.7-.2.4v.5l.6-.3c.2 0 .4-.3.6-.4l.6-.4.5-.3h.2v-.2-.2h.4l.3-.2s.3 0 .5-.2.4-.2.5-.2c.2 0 .4 0 .5-.3 0-.2.2-.3.4-.4l.5-.4c.2 0 .3-.3.5-.5H28v-.4c0-.2 0-.3.2-.3l.5-.8c0-.3.3-.5.5-.7.3-.4.7-.8 1.2-1 .4-.5.7-1 .7-1.6-.2-.2-.4-.3-.7-.3h-1c-.2.3-.4.3-.5.3l-.7.5-1.3 1-1.2 1-.7.8-.5.8c-.3 0-.5.4-.8.6z"/>
</svg>
