<?xml version="1.0" encoding="UTF-8" standalone="no"?>
<!-- Generator: Adobe Illustrator 19.0.0, SVG Export Plug-In . SVG Version: 6.00 Build 0)  -->

<svg
   xmlns:dc="http://purl.org/dc/elements/1.1/"
   xmlns:cc="http://creativecommons.org/ns#"
   xmlns:rdf="http://www.w3.org/1999/02/22-rdf-syntax-ns#"
   xmlns:svg="http://www.w3.org/2000/svg"
   xmlns="http://www.w3.org/2000/svg"
   xmlns:sodipodi="http://sodipodi.sourceforge.net/DTD/sodipodi-0.dtd"
   xmlns:inkscape="http://www.inkscape.org/namespaces/inkscape"
   version="1.1"
   id="Capa_1"
   x="0px"
   y="0px"
   viewBox="0 0 508.52 508.52"
   style="enable-background:new 0 0 508.52 508.52;"
   xml:space="preserve"
   inkscape:version="0.91 r13725"
   sodipodi:docname="linkedin-white.svg"><metadata
     id="metadata45"><rdf:RDF><cc:Work
         rdf:about=""><dc:format>image/svg+xml</dc:format><dc:type
           rdf:resource="http://purl.org/dc/dcmitype/StillImage" /><dc:title></dc:title></cc:Work></rdf:RDF></metadata><defs
     id="defs43" /><sodipodi:namedview
     pagecolor="#ffffff"
     bordercolor="#666666"
     borderopacity="1"
     objecttolerance="10"
     gridtolerance="10"
     guidetolerance="10"
     inkscape:pageopacity="0"
     inkscape:pageshadow="2"
     inkscape:window-width="1600"
     inkscape:window-height="838"
     id="namedview41"
     showgrid="false"
     inkscape:zoom="0.46409188"
     inkscape:cx="254.25999"
     inkscape:cy="254.25999"
     inkscape:window-x="-8"
     inkscape:window-y="-8"
     inkscape:window-maximized="1"
     inkscape:current-layer="Capa_1" /><g
     id="g3"
     style="fill:#ffffff;fill-opacity:1"><g
       id="g5"
       style="fill:#ffffff;fill-opacity:1"><g
         id="g7"
         style="fill:#ffffff;fill-opacity:1"><path
           style="fill:#ffffff;fill-opacity:1"
           d="M413.172,0H95.347C42.684,0,0,42.684,0,95.347v317.825c0,52.664,42.684,95.347,95.347,95.347     h317.825c52.664,0,95.347-42.684,95.347-95.347V95.347C508.52,42.684,465.836,0,413.172,0z M190.695,377.417H127.13V154.94     h63.565V377.417z M160.883,141.305c-16.463,0-29.78-13.349-29.78-29.812s13.349-29.812,29.78-29.812     c16.463,0.032,29.812,13.38,29.812,29.812C190.695,127.956,177.346,141.305,160.883,141.305z M413.172,377.417h-63.565V239.862     c0-16.114-4.608-27.396-24.409-27.396c-32.831,0-39.156,27.396-39.156,27.396v137.555h-63.565V154.94h63.565v21.262     c9.09-6.96,31.782-21.231,63.565-21.231c20.595,0,63.565,12.332,63.565,86.83V377.417z"
           id="path9" /></g></g></g><g
     id="g11" /><g
     id="g13" /><g
     id="g15" /><g
     id="g17" /><g
     id="g19" /><g
     id="g21" /><g
     id="g23" /><g
     id="g25" /><g
     id="g27" /><g
     id="g29" /><g
     id="g31" /><g
     id="g33" /><g
     id="g35" /><g
     id="g37" /><g
     id="g39" /></svg>