<svg version="1" xmlns="http://www.w3.org/2000/svg" width="933.333" height="933.333" viewBox="0 0 700.000000 700.000000"><path d="M325.9 11.4c-.2.2-3.5.7-7.4 1-14.3 1.2-25.5 2.9-41 6.3-3.8.8-7.7 1.6-8.5 1.8-17.7 3.7-48 14.9-69.3 25.6-17.5 8.7-21.8 11.2-37.2 21.5C92 114.3 40.9 186.6 20.9 268c-1.7 6.9-3.3 13.6-3.5 15-.3 1.4-.9 5-1.4 8-.5 3-1.2 7.3-1.5 9.5-.3 2.2-.7 4.9-1 6-2.7 12.8-2.8 71.4-.1 85.2.3 1.2.7 5 1.1 8.4.4 3.5.8 6.6 1 6.9.2.3.6 2.6 1 5 1.1 7.8 6.5 29 10.7 42 12.5 38.3 31 73.4 55.3 104.4 34.8 44.6 79.9 79.7 131.4 102.3 11 4.8 29.2 11.6 37.6 14 25.7 7.3 42.3 10.5 66 12.8 3.9.4 8.4.8 10 1 4.2.6 37.9.5 44.5 0 14.8-1.2 23.5-2.1 29-3.1 2.7-.4 16.5-3 21.5-3.9 1.7-.3 3.8-.8 4.7-1.1 1-.3 3-.7 4.4-1 5.4-1 32.3-9.7 43.4-14.1 54.9-21.7 103.3-57.7 140.6-104.4 19.5-24.6 38.6-57.2 49.5-84.9 5-12.8 13.3-38.8 14.5-46 .3-1.4 1-4.3 1.6-6.5.5-2.2 1.1-4.7 1.3-5.5.5-2.9 1.5-8.5 1.9-10.6.2-1.2.7-4.5 1.1-7.4.4-2.9.8-6.2 1-7.2 2.7-13.7 2.7-70.9.1-85.3-.2-1.1-.7-4.3-1-7-3.7-26.6-12.9-59.1-24.2-85.1-22.5-51.8-56.3-95.5-102.5-132.6C537.3 65.4 503.5 46 475 34.7c-17-6.8-43.4-14.7-57.5-17.1-1.6-.3-4.1-.8-5.5-1.1-7.4-1.4-7.1-1.4-19-2.9-2.5-.4-6.3-.9-8.5-1.2-4.5-.7-58-1.6-58.6-1zm53.1 33c1.9.2 5.8.7 8.5 1 76.6 9 149 48.8 199.4 109.6 3.8 4.6 6.8 8.6 6.6 8.9-.6.5-486.4.5-486.9 0-.6-.6 11.5-15.2 19.8-23.9 33.8-35.6 73.9-62.1 118.9-78.4 12.4-4.5 27.4-9 33.6-10.1 1.9-.3 3.7-.8 4.1-1 .6-.4 18.5-3.5 28-4.9 1.9-.3 7.3-.8 12-1.2 4.7-.3 8.7-.8 8.8-.9.5-.5 43 .3 47.2.9zM277.1 199c0 1.4 0 102.8.1 225.5v223l-2.3-.2c-4.5-.5-29.5-8.2-36.4-11.3-1.1-.5-4.9-2.1-8.5-3.6-34.2-14-71.2-39.2-98.9-67.4-37-37.8-64.3-85.7-77.6-136.2-3.2-12.5-5.7-24-7-33.3-.3-2.3-.7-5.2-1-6.5-2.6-13.2-2.6-62.8 0-77 .2-1.4.6-4.5.9-7 .3-2.5.8-5.6 1.1-7 .3-1.4.8-4.1 1.1-6 1.4-7.9 6.7-28.1 10.3-38.9 5.3-15.9 10-27.2 18.2-43.1l6.9-13.5h193l.1 2.5zm112.9-1.3c.3.7.5 63.3.4 139.3v138l64.5-.2 64.6-.3.1-15c0-8.3-.1-15.5-.3-16-.2-.7-16.8-1-47.9-1-26.2 0-47.8-.4-48.1-.9-.4-.6-.7-88.2-.4-105.9l.1-2.7h62.8l-.1-16.2-.2-16.1H423l-.1-4.1c0-2.3-.1-25.6-.2-51.9-.2-41.8 0-47.7 1.3-47.8 8.1-.6 189.9-.3 191.3.3 1.9 1 12.5 21.5 18.1 35 10.3 25 16.7 48.9 21.1 79.1 3 21.3 2.6 63-.9 84.1-1.9 11.1-3.5 19.6-4.2 21.8-.3 1-.8 3-1 4.5-1.6 8.7-10 34.1-16.1 48.6-5.2 12.3-15.2 31.5-22.7 43.2-4.8 7.6-13.8 20.6-16.1 23.2-.5.6-2.1 2.6-3.5 4.4-12.4 16.6-35.3 38.7-55.5 53.8-44.2 33.2-88.3 51.1-146 59.6-14.1 2.1-49.6 2.7-66 1.1-4.9-.5-9.6-.9-10.3-.9-.8 0-1.7-1-2.1-2.1-.8-2.6-.8-453.7.1-455.1 1-1.6 79.2-1.3 79.8.2z"/></svg>