<svg xmlns="http://www.w3.org/2000/svg" viewBox="0 0 24 24">
  <path d="M3.73 8.96c0-.92.17-1.8.5-2.62.3-.82.76-1.54 1.33-2.15.57-.62 1.22-1.15 1.96-1.6.74-.45 1.53-.78 2.4-1 .84-.23 1.7-.34 2.6-.34 1.36 0 2.62.3 3.8.86 1.16.57 2.12 1.4 2.85 2.5s1.1 2.33 1.1 3.7c0 .83-.1 1.64-.25 2.43-.16.8-.42 1.55-.77 2.28-.36.73-.8 1.38-1.3 1.93-.5.56-1.13 1-1.87 1.33-.74.32-1.55.5-2.44.5-.58 0-1.16-.15-1.74-.42-.58-.28-1-.65-1.24-1.14l-.36 1.46-.3 1.22-.27.92c-.13.42-.24.73-.33.92l-.42.8c-.18.35-.37.7-.6 1-.2.32-.47.7-.8 1.12l-.17.06-.1-.13c-.14-1.34-.2-2.15-.2-2.42 0-.8.1-1.68.28-2.66.18-1 .47-2.22.86-3.7.4-1.5.6-2.38.67-2.63-.27-.57-.4-1.3-.4-2.2 0-.7.22-1.38.67-2 .45-.64 1-.95 1.7-.95.53 0 .94.17 1.23.52.3.35.44.8.44 1.32 0 .56-.2 1.38-.57 2.46-.38 1.08-.57 1.88-.57 2.4 0 .56.2 1 .58 1.36.4.36.86.54 1.4.54.48 0 .92-.1 1.33-.32.4-.22.75-.5 1.02-.88.27-.37.5-.78.72-1.23.2-.45.38-.92.5-1.43.1-.5.2-.98.25-1.43.05-.45.08-.88.08-1.28 0-1.5-.48-2.66-1.42-3.5-.94-.82-2.17-1.24-3.68-1.24-1.72 0-3.16.56-4.32 1.67C6.7 6.15 6.13 7.56 6.13 9.28c0 .38.06.74.17 1.1.1.35.22.63.35.83l.34.6c.1.2.16.32.16.4 0 .24-.07.55-.2.94-.13.4-.3.58-.47.58-.03 0-.1 0-.23-.04-.44-.13-.83-.37-1.17-.72-.34-.36-.6-.76-.8-1.22-.17-.46-.3-.93-.4-1.4-.12-.47-.17-.93-.17-1.38z"/>
</svg>
